<svg version="1.1" viewBox="0.0 0.0 283.3359580052493 327.1706036745407" fill="none" stroke="none" stroke-linecap="square" stroke-miterlimit="10" xmlns:xlink="http://www.w3.org/1999/xlink" xmlns="http://www.w3.org/2000/svg"><clipPath id="p.0"><path d="m0 0l283.33597 0l0 327.1706l-283.33597 0l0 -327.1706z" clip-rule="nonzero"/></clipPath><g clip-path="url(#p.0)"><path fill="#000000" fill-opacity="0.0" d="m0 0l283.33597 0l0 327.1706l-283.33597 0z" fill-rule="evenodd"/><path fill="#ffffff" d="m2.5414755 140.07385l0 0c0 -76.844826 62.288647 -139.13986 139.1256 -139.13986l0 0c36.89839 0 72.28554 14.659336 98.37665 40.75312c26.09111 26.093788 40.748947 61.48455 40.748947 98.38674l0 0c0 76.84482 -62.28865 139.13986 -139.1256 139.13986l0 0c-76.836945 0 -139.1256 -62.295044 -139.1256 -139.13986z" fill-rule="evenodd"/><path stroke="#ffffff" stroke-width="1.0" stroke-linejoin="round" stroke-linecap="butt" d="m2.5414755 140.07385l0 0c0 -76.844826 62.288647 -139.13986 139.1256 -139.13986l0 0c36.89839 0 72.28554 14.659336 98.37665 40.75312c26.09111 26.093788 40.748947 61.48455 40.748947 98.38674l0 0c0 76.84482 -62.28865 139.13986 -139.1256 139.13986l0 0c-76.836945 0 -139.1256 -62.295044 -139.1256 -139.13986z" fill-rule="evenodd"/><path fill="#ffffff" d="m224.28786 249.79436l-82.62166 76.441696l-82.62165 -76.441696z" fill-rule="evenodd"/><path stroke="#ffffff" stroke-width="1.0" stroke-linejoin="round" stroke-linecap="butt" d="m224.28786 249.79436l-82.62166 76.441696l-82.62165 -76.441696z" fill-rule="evenodd"/><path fill="#ffffff" d="m98.27964 140.09062l0 0c0 -25.968315 21.049316 -47.019783 47.01496 -47.019783l0 0c12.469147 0 24.427582 4.95385 33.2446 13.771774c8.817017 8.817917 13.7703705 20.77758 13.7703705 33.24801l0 0c0 25.968307 -21.049316 47.019775 -47.01497 47.019775l0 0c-25.965645 0 -47.01496 -21.051468 -47.01496 -47.019775z" fill-rule="evenodd"/><path stroke="#ffffff" stroke-width="1.0" stroke-linejoin="round" stroke-linecap="butt" d="m98.27964 140.09062l0 0c0 -25.968315 21.049316 -47.019783 47.01496 -47.019783l0 0c12.469147 0 24.427582 4.95385 33.2446 13.771774c8.817017 8.817917 13.7703705 20.77758 13.7703705 33.24801l0 0c0 25.968307 -21.049316 47.019775 -47.01497 47.019775l0 0c-25.965645 0 -47.01496 -21.051468 -47.01496 -47.019775z" fill-rule="evenodd"/><path fill="#ffffff" d="m141.66704 258.9465l0 0c-66.11826 0 -119.71771 -53.21306 -119.71771 -118.854706c0 -65.64164 53.59945 -118.854706 119.71771 -118.854706l0 59.427353c-33.297447 0 -60.29036 26.60653 -60.29036 59.427353c0 32.820816 26.992912 59.427353 60.29036 59.427353z" fill-rule="evenodd"/><path stroke="#ffffff" stroke-width="1.0" stroke-linejoin="round" stroke-linecap="butt" d="m141.66704 258.9465l0 0c-66.11826 0 -119.71771 -53.21306 -119.71771 -118.854706c0 -65.64164 53.59945 -118.854706 119.71771 -118.854706l0 59.427353c-33.297447 0 -60.29036 26.60653 -60.29036 59.427353c0 32.820816 26.992912 59.427353 60.29036 59.427353z" fill-rule="evenodd"/><path fill="#ffffff" d="m142.64973 259.88574l0 41.49167l43.698425 -41.49167z" fill-rule="evenodd"/><path stroke="#ffffff" stroke-width="1.0" stroke-linejoin="round" stroke-linecap="butt" d="m142.64973 259.88574l0 41.49167l43.698425 -41.49167z" fill-rule="evenodd"/><path fill="#1155cc" d="m15.066453 139.88293l0 0c0 -69.92556 56.685867 -126.61143 126.61142 -126.61143l0 0c33.579437 0 65.783554 13.339379 89.5278 37.083626c23.744247 23.744247 37.083633 55.948357 37.083633 89.5278l0 0c0 69.92555 -56.685867 126.61142 -126.611435 126.61142l0 0c-69.92555 0 -126.61142 -56.685867 -126.61142 -126.61142z" fill-rule="evenodd"/><path stroke="#1155cc" stroke-width="1.0" stroke-linejoin="round" stroke-linecap="butt" d="m15.066453 139.88293l0 0c0 -69.92556 56.685867 -126.61143 126.61142 -126.61143l0 0c33.579437 0 65.783554 13.339379 89.5278 37.083626c23.744247 23.744247 37.083633 55.948357 37.083633 89.5278l0 0c0 69.92555 -56.685867 126.61142 -126.611435 126.61142l0 0c-69.92555 0 -126.61142 -56.685867 -126.61142 -126.61142z" fill-rule="evenodd"/><path fill="#1155cc" d="m216.86703 239.72397l-75.18994 69.55875l-75.18995 -69.55875z" fill-rule="evenodd"/><path stroke="#1155cc" stroke-width="1.0" stroke-linejoin="round" stroke-linecap="butt" d="m216.86703 239.72397l-75.18994 69.55875l-75.18995 -69.55875z" fill-rule="evenodd"/><path fill="#ffffff" d="m102.19309 139.8982l0 0c0 -23.630074 19.15596 -42.786034 42.786034 -42.786034l0 0c11.347549 0 22.230347 4.507805 30.254288 12.531738c8.023926 8.023941 12.531738 18.90673 12.531738 30.254295l0 0c0 23.630066 -19.15596 42.786026 -42.786026 42.786026l0 0c-23.630074 0 -42.786034 -19.15596 -42.786034 -42.786026z" fill-rule="evenodd"/><path stroke="#ffffff" stroke-width="1.0" stroke-linejoin="round" stroke-linecap="butt" d="m102.19309 139.8982l0 0c0 -23.630074 19.15596 -42.786034 42.786034 -42.786034l0 0c11.347549 0 22.230347 4.507805 30.254288 12.531738c8.023926 8.023941 12.531738 18.90673 12.531738 30.254295l0 0c0 23.630066 -19.15596 42.786026 -42.786026 42.786026l0 0c-23.630074 0 -42.786034 -19.15596 -42.786034 -42.786026z" fill-rule="evenodd"/><path fill="#ffffff" d="m141.67786 248.05205l0 0c-60.17102 0 -108.949265 -48.421646 -108.949265 -108.15279c0 -59.731133 48.778248 -108.15279 108.949265 -108.15279l0 54.076393c-30.30545 0 -54.87287 24.210823 -54.87287 54.076393c0 29.86557 24.567421 54.0764 54.87287 54.0764z" fill-rule="evenodd"/><path stroke="#ffffff" stroke-width="1.0" stroke-linejoin="round" stroke-linecap="butt" d="m141.67786 248.05205l0 0c-60.17102 0 -108.949265 -48.421646 -108.949265 -108.15279c0 -59.731133 48.778248 -108.15279 108.949265 -108.15279l0 54.076393c-30.30545 0 -54.87287 24.210823 -54.87287 54.076393c0 29.86557 24.567421 54.0764 54.87287 54.0764z" fill-rule="evenodd"/><path fill="#ffffff" d="m142.57216 248.90671l0 37.755676l39.767807 -37.755676z" fill-rule="evenodd"/><path stroke="#ffffff" stroke-width="1.0" stroke-linejoin="round" stroke-linecap="butt" d="m142.57216 248.90671l0 37.755676l39.767807 -37.755676z" fill-rule="evenodd"/></g></svg>